<svg width="187" height="137" viewBox="0 0 187 137" fill="none" xmlns="http://www.w3.org/2000/svg">
<g opacity="0.8" clip-path="url(#clip0_2234_8808)">
<path d="M5.3356 69.2957C5.3356 70.8151 4.19226 71.9546 2.6678 71.9546C1.14334 71.9546 0 70.8151 0 69.2957C0 67.7763 1.14334 66.6367 2.6678 66.6367C4.19226 66.6367 5.3356 67.9029 5.3356 69.2957Z" fill="white"/>
<path d="M28.0753 69.2957C28.0753 70.8151 26.932 71.9546 25.4075 71.9546C23.8831 71.9546 22.7397 70.8151 22.7397 69.2957C22.7397 67.7763 23.8831 66.6367 25.4075 66.6367C26.805 66.6367 28.0753 67.9029 28.0753 69.2957Z" fill="white"/>
<path d="M50.6881 69.2957C50.6881 70.8151 49.5448 71.9546 48.0203 71.9546C46.4959 71.9546 45.3525 70.8151 45.3525 69.2957C45.3525 67.7763 46.4959 66.6367 48.0203 66.6367C49.5448 66.6367 50.6881 67.9029 50.6881 69.2957Z" fill="white"/>
<path d="M73.4279 69.2957C73.4279 70.8151 72.2845 71.9546 70.7601 71.9546C69.2356 71.9546 68.0923 70.8151 68.0923 69.2957C68.0923 67.7763 69.2356 66.6367 70.7601 66.6367C72.2845 66.6367 73.4279 67.9029 73.4279 69.2957Z" fill="white"/>
<path d="M96.1676 69.2957C96.1676 70.8151 95.0243 71.9546 93.4998 71.9546C91.9754 71.9546 90.832 70.8151 90.832 69.2957C90.832 67.7763 91.9754 66.6367 93.4998 66.6367C94.8972 66.6367 96.1676 67.9029 96.1676 69.2957Z" fill="white"/>
<path d="M118.908 69.2957C118.908 70.8151 117.765 71.9546 116.24 71.9546C114.716 71.9546 113.572 70.8151 113.572 69.2957C113.572 67.7763 114.716 66.6367 116.24 66.6367C117.765 66.6367 118.908 67.9029 118.908 69.2957Z" fill="white"/>
<path d="M141.52 69.2957C141.52 70.8151 140.377 71.9546 138.852 71.9546C137.328 71.9546 136.185 70.8151 136.185 69.2957C136.185 67.7763 137.328 66.6367 138.852 66.6367C140.377 66.6367 141.52 67.9029 141.52 69.2957Z" fill="white"/>
<path d="M164.26 69.2957C164.26 70.8151 163.117 71.9546 161.592 71.9546C160.068 71.9546 158.924 70.8151 158.924 69.2957C158.924 67.7763 160.068 66.6367 161.592 66.6367C163.117 66.6367 164.26 67.9029 164.26 69.2957Z" fill="white"/>
<path d="M187 69.2957C187 70.8151 185.857 71.9546 184.332 71.9546C182.808 71.9546 181.665 70.8151 181.665 69.2957C181.665 67.7763 182.808 66.6367 184.332 66.6367C185.73 66.6367 187 67.9029 187 69.2957Z" fill="white"/>
<path d="M5.3356 102.614C5.3356 104.133 4.19226 105.273 2.6678 105.273C1.14334 105.273 0 104.133 0 102.614C0 101.095 1.14334 99.9551 2.6678 99.9551C4.19226 99.9551 5.3356 101.095 5.3356 102.614Z" fill="white"/>
<path d="M28.0753 102.614C28.0753 104.133 26.932 105.273 25.4075 105.273C23.8831 105.273 22.7397 104.133 22.7397 102.614C22.7397 101.095 23.8831 99.9551 25.4075 99.9551C26.805 99.9551 28.0753 101.095 28.0753 102.614Z" fill="white"/>
<path d="M50.6881 102.614C50.6881 104.133 49.5448 105.273 48.0203 105.273C46.4959 105.273 45.3525 104.133 45.3525 102.614C45.3525 101.095 46.4959 99.9551 48.0203 99.9551C49.5448 99.9551 50.6881 101.095 50.6881 102.614Z" fill="white"/>
<path d="M73.4279 102.614C73.4279 104.133 72.2845 105.273 70.7601 105.273C69.2356 105.273 68.0923 104.133 68.0923 102.614C68.0923 101.095 69.2356 99.9551 70.7601 99.9551C72.2845 99.9551 73.4279 101.095 73.4279 102.614Z" fill="white"/>
<path d="M96.1676 102.614C96.1676 104.133 95.0243 105.273 93.4998 105.273C91.9754 105.273 90.832 104.133 90.832 102.614C90.832 101.095 91.9754 99.9551 93.4998 99.9551C94.8972 99.9551 96.1676 101.095 96.1676 102.614Z" fill="white"/>
<path d="M118.908 102.614C118.908 104.133 117.765 105.273 116.24 105.273C114.716 105.273 113.572 104.133 113.572 102.614C113.572 101.095 114.716 99.9551 116.24 99.9551C117.765 99.9551 118.908 101.095 118.908 102.614Z" fill="white"/>
<path d="M141.52 102.614C141.52 104.133 140.377 105.273 138.852 105.273C137.328 105.273 136.185 104.133 136.185 102.614C136.185 101.095 137.328 99.9551 138.852 99.9551C140.377 99.9551 141.52 101.095 141.52 102.614Z" fill="white"/>
<path d="M164.26 102.614C164.26 104.133 163.117 105.273 161.592 105.273C160.068 105.273 158.924 104.133 158.924 102.614C158.924 101.095 160.068 99.9551 161.592 99.9551C163.117 99.9551 164.26 101.095 164.26 102.614Z" fill="white"/>
<path d="M187 102.614C187 104.133 185.857 105.273 184.332 105.273C182.808 105.273 181.665 104.133 181.665 102.614C181.665 101.095 182.808 99.9551 184.332 99.9551C185.73 99.9551 187 101.095 187 102.614Z" fill="white"/>
<path d="M5.3356 2.65896C5.3356 4.17837 4.19226 5.31793 2.6678 5.31793C1.14334 5.31793 0 4.17837 0 2.65896C0 1.13956 1.14334 0 2.6678 0C4.19226 0 5.3356 1.13956 5.3356 2.65896Z" fill="white"/>
<path d="M28.0753 2.65896C28.0753 4.17837 26.932 5.31793 25.4075 5.31793C23.8831 5.31793 22.7397 4.17837 22.7397 2.65896C22.7397 1.13956 23.8831 0 25.4075 0C26.805 0 28.0753 1.13956 28.0753 2.65896Z" fill="white"/>
<path d="M50.6881 2.65896C50.6881 4.17837 49.5448 5.31793 48.0203 5.31793C46.4959 5.31793 45.3525 4.17837 45.3525 2.65896C45.3525 1.13956 46.6229 0 48.0203 0C49.5448 0 50.6881 1.13956 50.6881 2.65896Z" fill="white"/>
<path d="M73.4279 2.65896C73.4279 4.17837 72.2845 5.31793 70.7601 5.31793C69.2356 5.31793 68.0923 4.17837 68.0923 2.65896C68.0923 1.13956 69.3627 0 70.7601 0C72.1575 0 73.4279 1.13956 73.4279 2.65896Z" fill="white"/>
<path d="M96.1676 2.65896C96.1676 4.17837 95.0243 5.31793 93.4998 5.31793C91.9754 5.31793 90.832 4.17837 90.832 2.65896C90.832 1.13956 91.9754 0 93.4998 0C94.8972 0 96.1676 1.13956 96.1676 2.65896Z" fill="white"/>
<path d="M118.908 2.65896C118.908 4.17837 117.765 5.31793 116.24 5.31793C114.716 5.31793 113.572 4.17837 113.572 2.65896C113.572 1.13956 114.716 0 116.24 0C117.765 0 118.908 1.13956 118.908 2.65896Z" fill="white"/>
<path d="M141.52 2.65896C141.52 4.17837 140.377 5.31793 138.852 5.31793C137.328 5.31793 136.185 4.17837 136.185 2.65896C136.185 1.13956 137.328 0 138.852 0C140.377 0 141.52 1.13956 141.52 2.65896Z" fill="white"/>
<path d="M164.26 2.65896C164.26 4.17837 163.117 5.31793 161.592 5.31793C160.068 5.31793 158.924 4.17837 158.924 2.65896C158.924 1.13956 160.068 0 161.592 0C163.117 0 164.26 1.13956 164.26 2.65896Z" fill="white"/>
<path d="M187 2.65896C187 4.17837 185.857 5.31793 184.332 5.31793C182.808 5.31793 181.665 4.17837 181.665 2.65896C181.665 1.13956 182.808 0 184.332 0C185.73 0 187 1.13956 187 2.65896Z" fill="white"/>
<path d="M5.3356 35.9773C5.3356 37.4967 4.19226 38.6363 2.6678 38.6363C1.14334 38.6363 0 37.3701 0 35.9773C0 34.4579 1.14334 33.3184 2.6678 33.3184C4.19226 33.3184 5.3356 34.4579 5.3356 35.9773Z" fill="white"/>
<path d="M28.0753 35.9773C28.0753 37.4967 26.932 38.6363 25.4075 38.6363C23.8831 38.6363 22.7397 37.4967 22.7397 35.9773C22.7397 34.4579 23.8831 33.3184 25.4075 33.3184C26.805 33.3184 28.0753 34.4579 28.0753 35.9773Z" fill="white"/>
<path d="M50.6881 35.9773C50.6881 37.4967 49.5448 38.6363 48.0203 38.6363C46.4959 38.6363 45.3525 37.4967 45.3525 35.9773C45.3525 34.4579 46.4959 33.3184 48.0203 33.3184C49.5448 33.3184 50.6881 34.4579 50.6881 35.9773Z" fill="white"/>
<path d="M73.4279 35.9773C73.4279 37.4967 72.2845 38.6363 70.7601 38.6363C69.2356 38.6363 68.0923 37.4967 68.0923 35.9773C68.0923 34.4579 69.2356 33.3184 70.7601 33.3184C72.2845 33.3184 73.4279 34.4579 73.4279 35.9773Z" fill="white"/>
<path d="M96.1676 35.9773C96.1676 37.4967 95.0243 38.6363 93.4998 38.6363C91.9754 38.6363 90.832 37.4967 90.832 35.9773C90.832 34.4579 91.9754 33.3184 93.4998 33.3184C94.8972 33.3184 96.1676 34.4579 96.1676 35.9773Z" fill="white"/>
<path d="M118.908 35.9773C118.908 37.4967 117.765 38.6363 116.24 38.6363C114.716 38.6363 113.572 37.4967 113.572 35.9773C113.572 34.4579 114.716 33.3184 116.24 33.3184C117.765 33.3184 118.908 34.4579 118.908 35.9773Z" fill="white"/>
<path d="M141.52 35.9773C141.52 37.4967 140.377 38.6363 138.852 38.6363C137.328 38.6363 136.185 37.4967 136.185 35.9773C136.185 34.4579 137.328 33.3184 138.852 33.3184C140.377 33.3184 141.52 34.4579 141.52 35.9773Z" fill="white"/>
<path d="M164.26 35.9773C164.26 37.4967 163.117 38.6363 161.592 38.6363C160.068 38.6363 158.924 37.4967 158.924 35.9773C158.924 34.4579 160.068 33.3184 161.592 33.3184C163.117 33.3184 164.26 34.4579 164.26 35.9773Z" fill="white"/>
<path d="M187 35.9773C187 37.4967 185.857 38.6363 184.332 38.6363C182.808 38.6363 181.665 37.4967 181.665 35.9773C181.665 34.4579 182.808 33.3184 184.332 33.3184C185.73 33.3184 187 34.4579 187 35.9773Z" fill="white"/>
<path d="M5.3356 135.932C5.3356 137.452 4.19226 138.591 2.6678 138.591C1.14334 138.591 0 137.452 0 135.932C0 134.413 1.14334 133.273 2.6678 133.273C4.19226 133.273 5.3356 134.54 5.3356 135.932Z" fill="white"/>
<path d="M28.0753 135.932C28.0753 137.452 26.932 138.591 25.4075 138.591C23.8831 138.591 22.7397 137.452 22.7397 135.932C22.7397 134.413 23.8831 133.273 25.4075 133.273C26.805 133.273 28.0753 134.54 28.0753 135.932Z" fill="white"/>
<path d="M50.6881 135.932C50.6881 137.452 49.5448 138.591 48.0203 138.591C46.4959 138.591 45.3525 137.452 45.3525 135.932C45.3525 134.413 46.4959 133.273 48.0203 133.273C49.5448 133.273 50.6881 134.54 50.6881 135.932Z" fill="white"/>
<path d="M73.4279 135.932C73.4279 137.452 72.2845 138.591 70.7601 138.591C69.2356 138.591 68.0923 137.452 68.0923 135.932C68.0923 134.413 69.2356 133.273 70.7601 133.273C72.2845 133.273 73.4279 134.54 73.4279 135.932Z" fill="white"/>
<path d="M96.1676 135.932C96.1676 137.452 95.0243 138.591 93.4998 138.591C91.9754 138.591 90.832 137.452 90.832 135.932C90.832 134.413 91.9754 133.273 93.4998 133.273C94.8972 133.273 96.1676 134.54 96.1676 135.932Z" fill="white"/>
<path d="M118.908 135.932C118.908 137.452 117.765 138.591 116.24 138.591C114.716 138.591 113.572 137.452 113.572 135.932C113.572 134.413 114.716 133.273 116.24 133.273C117.765 133.273 118.908 134.54 118.908 135.932Z" fill="white"/>
<path d="M141.52 135.932C141.52 137.452 140.377 138.591 138.852 138.591C137.328 138.591 136.185 137.452 136.185 135.932C136.185 134.413 137.328 133.273 138.852 133.273C140.377 133.273 141.52 134.54 141.52 135.932Z" fill="white"/>
<path d="M164.26 135.932C164.26 137.452 163.117 138.591 161.592 138.591C160.068 138.591 158.924 137.452 158.924 135.932C158.924 134.413 160.068 133.273 161.592 133.273C163.117 133.273 164.26 134.54 164.26 135.932Z" fill="white"/>
<path d="M187 135.932C187 137.452 185.857 138.591 184.332 138.591C182.808 138.591 181.665 137.452 181.665 135.932C181.665 134.413 182.808 133.273 184.332 133.273C185.73 133.273 187 134.54 187 135.932Z" fill="white"/>
</g>
<defs>
<clipPath id="clip0_2234_8808">
<rect width="187" height="137" fill="white"/>
</clipPath>
</defs>
</svg>
